<svg xmlns="http://www.w3.org/2000/svg"  viewBox="0 0 24 24" width="24px" height="24px"><path d="M18,19V6c0-1.657-1.343-3-3-3H5C3.343,3,2,4.343,2,6v12c0,1.657,1.343,3,3,3h15	C18.895,21,18,20.105,18,19z" opacity=".35"/><path d="M14,14H6c-0.552,0-1-0.448-1-1v0c0-0.552,0.448-1,1-1h8c0.552,0,1,0.448,1,1v0C15,13.552,14.552,14,14,14z"/><path d="M14,18H6c-0.552,0-1-0.448-1-1v0c0-0.552,0.448-1,1-1h8c0.552,0,1,0.448,1,1v0C15,17.552,14.552,18,14,18z"/><path d="M20,7h-2v12c0,1.105,0.895,2,2,2h0c1.105,0,2-0.895,2-2V9C22,7.895,21.105,7,20,7z"/><path d="M13.5,7c-0.386,0-6.614,0-7,0C5.672,7,5,7.672,5,8.5S5.672,10,6.5,10c0.386,0,6.614,0,7,0c0.828,0,1.5-0.672,1.5-1.5	S14.328,7,13.5,7z"/></svg>